<svg xmlns="http://www.w3.org/2000/svg" width="216.56" height="25.2" viewBox="0 0 216.56 25.2">
  <g id="グループ_1499" data-name="グループ 1499" transform="translate(-531.52 -52.8)">
    <path id="パス_1062" data-name="パス 1062" d="M3.42,0a.863.863,0,0,1-.63-.27A.863.863,0,0,1,2.52-.9V-24.3a.847.847,0,0,1,.27-.648.894.894,0,0,1,.63-.252H7.236a1.226,1.226,0,0,1,1.224.684l8.784,13.824V-24.3a.847.847,0,0,1,.27-.648.894.894,0,0,1,.63-.252h4.32a.877.877,0,0,1,.648.252.877.877,0,0,1,.252.648V-.936a.939.939,0,0,1-.252.666.847.847,0,0,1-.648.27H18.612a1.288,1.288,0,0,1-1.188-.684L8.64-14V-.9a.894.894,0,0,1-.252.63A.847.847,0,0,1,7.74,0ZM32.9,0a.863.863,0,0,1-.63-.27A.863.863,0,0,1,32-.9V-24.3a.847.847,0,0,1,.27-.648.894.894,0,0,1,.63-.252H37.44a.877.877,0,0,1,.648.252.877.877,0,0,1,.252.648v7.992L45-24.516a1.534,1.534,0,0,1,1.4-.684h5.184a.7.7,0,0,1,.54.234.752.752,0,0,1,.216.522.824.824,0,0,1-.108.432L43.6-13.14,52.884-1.188a.587.587,0,0,1,.144.432.752.752,0,0,1-.216.522.7.7,0,0,1-.54.234H46.908a1.773,1.773,0,0,1-1.44-.72L38.34-9.612V-.9a.877.877,0,0,1-.252.648A.877.877,0,0,1,37.44,0Z" transform="translate(529 78)"/>
    <path id="パス_1061" data-name="パス 1061" d="M3.64,0A.752.752,0,0,1,3.1-.19a.782.782,0,0,1-.24-.47L.68-13.44a.443.443,0,0,1-.02-.14.4.4,0,0,1,.13-.29A.4.4,0,0,1,1.08-14H3.56q.56,0,.62.44l1.3,7.8,1.44-4.6q.22-.54.66-.54H9.02a.652.652,0,0,1,.66.54l1.44,4.6,1.3-7.8q.06-.44.62-.44h2.48a.423.423,0,0,1,.31.13.4.4,0,0,1,.13.29l-.02.14L13.76-.66a.761.761,0,0,1-.25.47.76.76,0,0,1-.53.19h-1.9a.727.727,0,0,1-.5-.16.956.956,0,0,1-.26-.36L8.3-6.24,6.28-.52A.716.716,0,0,1,5.54,0ZM20.52,0a.48.48,0,0,1-.35-.15.48.48,0,0,1-.15-.35v-13a.47.47,0,0,1,.15-.36.5.5,0,0,1,.35-.14h9.34a.487.487,0,0,1,.36.14.487.487,0,0,1,.14.36v1.88a.5.5,0,0,1-.14.35.47.47,0,0,1-.36.15H23.48v2.7h5.94a.47.47,0,0,1,.36.15.522.522,0,0,1,.14.37v1.74a.5.5,0,0,1-.14.35.47.47,0,0,1-.36.15H23.48v2.78h6.54a.487.487,0,0,1,.36.14.487.487,0,0,1,.14.36V-.5a.5.5,0,0,1-.14.35.47.47,0,0,1-.36.15ZM35.3,0a.48.48,0,0,1-.35-.15A.48.48,0,0,1,34.8-.5v-13a.47.47,0,0,1,.15-.36A.5.5,0,0,1,35.3-14h6.1a5.748,5.748,0,0,1,3.75,1.03,3.608,3.608,0,0,1,1.23,2.93,2.764,2.764,0,0,1-.51,1.69,3.258,3.258,0,0,1-1.15,1.01A3.344,3.344,0,0,1,46.1-6.12a3.314,3.314,0,0,1,.56,1.88,3.87,3.87,0,0,1-1.32,3.12A5.651,5.651,0,0,1,41.58,0ZM41-8.44a1.677,1.677,0,0,0,1.22-.41,1.454,1.454,0,0,0,.42-1.09A1.4,1.4,0,0,0,42.22-11,1.7,1.7,0,0,0,41-11.4H38.4v2.96Zm.18,5.84a1.689,1.689,0,0,0,1.28-.48,1.616,1.616,0,0,0,.46-1.16,1.631,1.631,0,0,0-.46-1.19,1.709,1.709,0,0,0-1.28-.47H38.4v3.3ZM62.36.2A8.547,8.547,0,0,1,59.1-.36a4.778,4.778,0,0,1-2.05-1.47,3.442,3.442,0,0,1-.73-1.99.4.4,0,0,1,.13-.29.423.423,0,0,1,.31-.13h2.52a.751.751,0,0,1,.39.09,1.377,1.377,0,0,1,.31.27,2.079,2.079,0,0,0,.84.86,3.03,3.03,0,0,0,1.54.34,3.421,3.421,0,0,0,1.74-.36,1.1,1.1,0,0,0,.6-.98.926.926,0,0,0-.31-.72,2.767,2.767,0,0,0-.97-.5,19.955,19.955,0,0,0-1.96-.5,8.413,8.413,0,0,1-3.59-1.47,3.369,3.369,0,0,1-1.19-2.77,3.679,3.679,0,0,1,.68-2.18,4.455,4.455,0,0,1,1.94-1.5,7.416,7.416,0,0,1,2.94-.54,7.055,7.055,0,0,1,3.02.6,4.977,4.977,0,0,1,1.95,1.51,3.285,3.285,0,0,1,.71,1.79.407.407,0,0,1-.12.3.407.407,0,0,1-.3.12H64.86a.827.827,0,0,1-.39-.08.765.765,0,0,1-.27-.26,1.318,1.318,0,0,0-.65-.78,2.493,2.493,0,0,0-1.31-.32,2.485,2.485,0,0,0-1.38.32,1.058,1.058,0,0,0-.48.94.968.968,0,0,0,.27.7,2.4,2.4,0,0,0,.88.51,12.6,12.6,0,0,0,1.75.47,12.8,12.8,0,0,1,2.97.85,3.7,3.7,0,0,1,1.63,1.32,3.688,3.688,0,0,1,.52,2.03,3.684,3.684,0,0,1-.77,2.33A4.85,4.85,0,0,1,65.49-.33,8.629,8.629,0,0,1,62.36.2ZM75.84,0a.48.48,0,0,1-.35-.15.48.48,0,0,1-.15-.35V-10.86H71.78a.48.48,0,0,1-.35-.15.48.48,0,0,1-.15-.35V-13.5a.47.47,0,0,1,.15-.36.5.5,0,0,1,.35-.14H82.54a.487.487,0,0,1,.36.14.487.487,0,0,1,.14.36v2.14a.487.487,0,0,1-.14.36.487.487,0,0,1-.36.14H78.98V-.5a.5.5,0,0,1-.14.35.47.47,0,0,1-.36.15Zm16.9.2a6.509,6.509,0,0,1-4.41-1.38,5.213,5.213,0,0,1-1.59-4.16V-13.5a.47.47,0,0,1,.15-.36.5.5,0,0,1,.35-.14h2.58a.522.522,0,0,1,.37.14.47.47,0,0,1,.15.36v8.14a2.757,2.757,0,0,0,.61,1.95,2.311,2.311,0,0,0,1.77.65,2.3,2.3,0,0,0,1.76-.66,2.735,2.735,0,0,0,.62-1.94V-13.5a.47.47,0,0,1,.15-.36A.5.5,0,0,1,95.6-14h2.6a.487.487,0,0,1,.36.14.487.487,0,0,1,.14.36v8.16a5.213,5.213,0,0,1-1.59,4.16A6.445,6.445,0,0,1,92.74.2ZM103.86,0a.48.48,0,0,1-.35-.15.48.48,0,0,1-.15-.35v-13a.47.47,0,0,1,.15-.36.5.5,0,0,1,.35-.14h5.2a6.759,6.759,0,0,1,4.56,1.4,5.3,5.3,0,0,1,1.7,4.06q.02.58.02,1.54t-.02,1.52a5.465,5.465,0,0,1-1.65,4.13A6.676,6.676,0,0,1,109.16,0Zm5.2-2.88A2.622,2.622,0,0,0,111-3.51a2.907,2.907,0,0,0,.66-2.01q.04-.58.04-1.5t-.04-1.48a2.744,2.744,0,0,0-.71-1.98,2.778,2.778,0,0,0-1.99-.64h-2v8.24ZM120.18,0a.48.48,0,0,1-.35-.15.48.48,0,0,1-.15-.35v-13a.47.47,0,0,1,.15-.36.5.5,0,0,1,.35-.14h2.68a.522.522,0,0,1,.37.14.47.47,0,0,1,.15.36v13a.47.47,0,0,1-.15.36.522.522,0,0,1-.37.14Zm13.7.2a6.628,6.628,0,0,1-4.44-1.38,5.315,5.315,0,0,1-1.72-4.06q-.02-.58-.02-1.72,0-1.16.02-1.74a5.383,5.383,0,0,1,1.75-4.07,6.5,6.5,0,0,1,4.41-1.43,6.538,6.538,0,0,1,4.42,1.43,5.307,5.307,0,0,1,1.74,4.07q.04,1.16.04,1.74,0,.56-.04,1.72a5.315,5.315,0,0,1-1.72,4.06A6.628,6.628,0,0,1,133.88.2Zm0-2.88a2.345,2.345,0,0,0,1.75-.66,2.9,2.9,0,0,0,.69-2.02q.04-1.16.04-1.64,0-.52-.04-1.64a2.876,2.876,0,0,0-.7-2.02,2.352,2.352,0,0,0-1.74-.66,2.319,2.319,0,0,0-1.73.66,2.973,2.973,0,0,0-.71,2.02q-.02.56-.02,1.64,0,1.06.02,1.64a3,3,0,0,0,.7,2.02A2.311,2.311,0,0,0,133.88-2.68Z" transform="translate(608 72)"/>
  </g>
</svg>
