<svg id="undraw_building_websites_i78t" xmlns="http://www.w3.org/2000/svg" width="558.178" height="421.352" viewBox="0 0 558.178 421.352">
  <path id="パス_790" data-name="パス 790" d="M659.488,126.968c4.788,10.189-5.358,13.075-16.979,18.536s-20.319,11.429-25.106,1.24-8.673-30.412,7.768-38.137C642.178,100.615,654.7,116.779,659.488,126.968Z" transform="translate(-337.827 -106.46)" fill="#2f2e41"/>
  <circle id="楕円形_293" data-name="楕円形 293" cx="15.645" cy="15.645" r="15.645" transform="translate(282.305 9.254)" fill="#ffb8b8"/>
  <path id="パス_791" data-name="パス 791" d="M738.658,242.777c-.542-.707-1.083-1.4-1.631-2.077q-1.06-1.318-2.134-2.554c-8.109-9.357-16.734-15.25-26.231-15.88h-.013l-.14-.013L689.584,240.7l-6.434,6.268.14.344,3.471,8.644h60.827a149.61,149.61,0,0,0-8.931-13.179Z" transform="translate(-363.198 -148.494)" fill="#2f2e41"/>
  <path id="パス_792" data-name="パス 792" d="M621,141.211h0l5.6-2.632-.78-8.079,3.745,6.686,2.677-1.258-.455-4.713,2.185,3.9,19.89-9.346h0a16.562,16.562,0,0,0-22.033-7.946l-2.883,1.355A16.562,16.562,0,0,0,621,141.211Z" transform="translate(-340.066 -110.013)" fill="#2f2e41"/>
  <path id="パス_793" data-name="パス 793" d="M633.236,479.02H306.562a10.522,10.522,0,0,1-10.51-10.51V272.219a7.709,7.709,0,0,1,7.7-7.7H635.913a7.842,7.842,0,0,1,7.833,7.833V468.51a10.522,10.522,0,0,1-10.51,10.51Z" transform="translate(-222.678 -163.837)" fill="#f2f2f2"/>
  <path id="パス_794" data-name="パス 794" d="M322.744,478.2h306.29a10.192,10.192,0,0,0,10.192-10.192V301.4a10.192,10.192,0,0,0-10.192-10.192H322.744A10.192,10.192,0,0,0,312.552,301.4v166.6A10.192,10.192,0,0,0,322.744,478.2Z" transform="translate(-228.668 -173.527)" fill="#fff"/>
  <path id="パス_795" data-name="パス 795" d="M643.516,266.606H295.82v-5.351a10.557,10.557,0,0,1,10.549-10.542h326.6a10.557,10.557,0,0,1,10.549,10.542Z" transform="translate(-222.594 -158.825)"/>
  <circle id="楕円形_294" data-name="楕円形 294" cx="2.729" cy="2.729" r="2.729" transform="translate(89.668 97.121)" fill="#fff"/>
  <circle id="楕円形_295" data-name="楕円形 295" cx="2.729" cy="2.729" r="2.729" transform="translate(100.025 97.121)" fill="#fff"/>
  <circle id="楕円形_296" data-name="楕円形 296" cx="2.729" cy="2.729" r="2.729" transform="translate(110.381 97.121)" fill="#fff"/>
  <path id="パス_796" data-name="パス 796" d="M564.917,505.533H537.526a6.058,6.058,0,0,1-6.051-6.051V472.091a6.058,6.058,0,0,1,6.051-6.051h27.391a6.058,6.058,0,0,1,6.051,6.051v27.391A6.058,6.058,0,0,1,564.917,505.533Zm-27.391-38.219a4.783,4.783,0,0,0-4.778,4.777v27.391a4.783,4.783,0,0,0,4.778,4.777h27.391a4.783,4.783,0,0,0,4.778-4.777V472.091a4.783,4.783,0,0,0-4.778-4.777Z" transform="translate(-308.139 -236.991)" fill="#ccc"/>
  <path id="パス_797" data-name="パス 797" d="M564.947,502.245H548.385a1.913,1.913,0,0,1-1.911-1.911V479.951a1.913,1.913,0,0,1,1.911-1.911h12a1.916,1.916,0,0,1,1.2.421l4.561,3.665a1.9,1.9,0,0,1,.714,1.49v16.719A1.913,1.913,0,0,1,564.947,502.245Zm-16.562-22.932a.638.638,0,0,0-.637.637v20.384a.638.638,0,0,0,.637.637h16.562a.638.638,0,0,0,.637-.637V483.616a.634.634,0,0,0-.238-.5l-4.562-3.666a.638.638,0,0,0-.4-.14Z" transform="translate(-313.584 -241.347)" fill="#ccc"/>
  <path id="パス_798" data-name="パス 798" d="M564.3,491.314H554.112a.637.637,0,1,1,0-1.274H564.3a.637.637,0,1,1,0,1.274Z" transform="translate(-316.125 -245.703)" fill="#ccc"/>
  <path id="パス_799" data-name="パス 799" d="M564.3,497.314H554.112a.637.637,0,1,1,0-1.274H564.3a.637.637,0,1,1,0,1.274Z" transform="translate(-316.125 -247.881)" fill="#ccc"/>
  <path id="パス_800" data-name="パス 800" d="M564.3,503.314H554.112a.637.637,0,1,1,0-1.274H564.3a.637.637,0,1,1,0,1.274Z" transform="translate(-316.125 -250.059)" fill="#ccc"/>
  <path id="パス_801" data-name="パス 801" d="M666.917,505.533H639.526a6.058,6.058,0,0,1-6.051-6.051V472.091a6.058,6.058,0,0,1,6.051-6.051h27.391a6.058,6.058,0,0,1,6.052,6.051v27.391A6.058,6.058,0,0,1,666.917,505.533Zm-27.391-38.219a4.783,4.783,0,0,0-4.777,4.777v27.391a4.783,4.783,0,0,0,4.777,4.777h27.391a4.783,4.783,0,0,0,4.777-4.777V472.091a4.783,4.783,0,0,0-4.777-4.777Z" transform="translate(-345.166 -236.991)" fill="#ccc"/>
  <path id="パス_802" data-name="パス 802" d="M667.221,500.053H649.385a1.913,1.913,0,0,1-1.911-1.911V487.951a1.913,1.913,0,0,1,1.911-1.911h17.836a1.913,1.913,0,0,1,1.911,1.911v10.192A1.913,1.913,0,0,1,667.221,500.053Zm-17.836-12.74a.638.638,0,0,0-.637.637v10.192a.638.638,0,0,0,.637.637h17.836a.638.638,0,0,0,.637-.637V487.951a.638.638,0,0,0-.637-.637Z" transform="translate(-350.248 -244.251)" fill="#ccc"/>
  <path id="パス_803" data-name="パス 803" d="M658.3,495.453a1.914,1.914,0,0,1-1.013-.288l-9.517-5.948a.637.637,0,0,1,.676-1.081l9.517,5.948a.641.641,0,0,0,.675,0l9.516-5.948a.637.637,0,1,1,.676,1.081l-9.516,5.948A1.915,1.915,0,0,1,658.3,495.453Z" transform="translate(-350.248 -244.977)" fill="#ccc"/>
  <path id="パス_804" data-name="パス 804" d="M462.916,505.533H435.526a6.058,6.058,0,0,1-6.051-6.051V472.091a6.058,6.058,0,0,1,6.051-6.051h27.391a6.058,6.058,0,0,1,6.051,6.051v27.391A6.058,6.058,0,0,1,462.916,505.533Zm-27.391-38.219a4.783,4.783,0,0,0-4.777,4.777v27.391a4.783,4.783,0,0,0,4.777,4.777h27.391a4.783,4.783,0,0,0,4.777-4.777V472.091a4.783,4.783,0,0,0-4.777-4.777Z" transform="translate(-271.112 -236.991)" fill="#ccc"/>
  <path id="パス_805" data-name="パス 805" d="M463.221,500.053H445.385a1.913,1.913,0,0,1-1.911-1.911V487.951a1.913,1.913,0,0,1,1.911-1.911h17.836a1.913,1.913,0,0,1,1.911,1.911v10.192a1.913,1.913,0,0,1-1.911,1.911Zm-17.836-12.74a.638.638,0,0,0-.637.637v10.192a.638.638,0,0,0,.637.637h17.836a.638.638,0,0,0,.637-.637V487.951a.638.638,0,0,0-.637-.637Z" transform="translate(-276.194 -244.251)" fill="#ccc"/>
  <path id="パス_806" data-name="パス 806" d="M462.005,502.776H449.186a1.274,1.274,0,0,1-1.1-1.911l3.861-6.688a1.274,1.274,0,0,1,2.207,0l2.494,4.32,1.445-2.5a1.274,1.274,0,0,1,2.207,0l2.812,4.871a1.274,1.274,0,0,1-1.1,1.911Zm0-1.274h0l-2.812-4.871-2,3.458a.637.637,0,0,1-.552.319h0a.637.637,0,0,1-.552-.319l-3.045-5.275-3.862,6.688Z" transform="translate(-277.805 -246.974)" fill="#ccc"/>
  <circle id="楕円形_297" data-name="楕円形 297" cx="1.274" cy="1.274" r="1.274" transform="translate(183.842 244.337)" fill="#ccc"/>
  <path id="パス_807" data-name="パス 807" d="M762.257,630.984h-7.81l-3.715-30.122h11.526Z" transform="translate(-272.522 -218.118)" fill="#ffb8b8"/>
  <path id="パス_808" data-name="パス 808" d="M938.466,760.727h-25.18v-.319a9.8,9.8,0,0,1,9.8-9.8h15.38Z" transform="translate(-446.739 -340.291)" fill="#2f2e41"/>
  <path id="パス_809" data-name="パス 809" d="M812.257,630.984h-7.81l-3.715-30.122h11.526Z" transform="translate(-290.673 -218.118)" fill="#ffb8b8"/>
  <path id="パス_810" data-name="パス 810" d="M988.466,760.727h-25.18v-.319a9.8,9.8,0,0,1,9.8-9.8h15.38Z" transform="translate(-464.89 -340.291)" fill="#2f2e41"/>
  <path id="パス_811" data-name="パス 811" d="M971.6,668.131l-7.233-2.2a2.862,2.862,0,0,1-2.017-2.442L955.6,599.583a.306.306,0,0,0-.3-.285.3.3,0,0,0-.325.261L943.68,661.473a2.866,2.866,0,0,1-3.4,2.293l-9.244-1.9a2.876,2.876,0,0,1-2.282-3l6.87-101.481,46.588-5.027-6.923,113.21a2.864,2.864,0,0,1-3.7,2.568Z" transform="translate(-452.353 -268.323)" fill="#2f2e41"/>
  <circle id="楕円形_298" data-name="楕円形 298" cx="15.645" cy="15.645" r="15.645" transform="translate(503.554 169.393)" fill="#ffb8b8"/>
  <path id="パス_812" data-name="パス 812" d="M939.433,513.347l10.1-63.6a24.115,24.115,0,0,1,30.579-19.364h0a24.042,24.042,0,0,1,16.945,27.558l-10.568,56.8Z" transform="translate(-456.231 -223.694)"/>
  <path id="パス_813" data-name="パス 813" d="M997.013,561.959a6.406,6.406,0,0,0,1.113-9.759l10.444-20.225-11.762,1.255-8.115,19.014a6.44,6.44,0,0,0,8.32,9.715Z" transform="translate(-473.494 -260.926)" fill="#ffb8b8"/>
  <path id="パス_814" data-name="パス 814" d="M1002.554,517.113a2.871,2.871,0,0,1-1.546-.733l-4-3.693a2.876,2.876,0,0,1-.7-3.219l7.986-18.93-1.133-37.4a9.234,9.234,0,1,1,18.3,2.5l1.937,23.513a29.54,29.54,0,0,1-5.693,20l-12.454,16.837a2.869,2.869,0,0,1-2.035,1.149A2.834,2.834,0,0,1,1002.554,517.113Z" transform="translate(-476.799 -229.407)"/>
  <path id="パス_815" data-name="パス 815" d="M854.439,379.2a6.405,6.405,0,0,0,8.552,4.83l14.553,17.5,3.43-11.321L866.629,375.33a6.44,6.44,0,0,0-12.19,3.873Z" transform="translate(-425.335 -202.69)" fill="#ffb8b8"/>
  <path id="パス_816" data-name="パス 816" d="M872.168,392.887a2.871,2.871,0,0,1,1.278-1.137l4.958-2.24a2.876,2.876,0,0,1,3.236.615l14.318,14.735,34.886,13.54a9.234,9.234,0,0,1-9.433,15.877L899,426.893a29.541,29.541,0,0,1-16.2-13.04l-10.649-18.034a2.87,2.87,0,0,1-.264-2.322A2.838,2.838,0,0,1,872.168,392.887Z" transform="translate(-431.665 -209.118)"/>
  <path id="パス_817" data-name="パス 817" d="M827.952,375.652l-.637,20.384L815.58,416.426l9.8-22.723Z" transform="translate(-296.063 -136.365)" opacity="0.1"/>
  <path id="パス_818" data-name="パス 818" d="M982.6,388.841a4.091,4.091,0,0,1-4.478-3,6.22,6.22,0,0,0-4.428-4.633c-2.87-.656-6.378.7-8.481-1.479a4.228,4.228,0,0,1-1-3.722,8.546,8.546,0,0,1,3.544-4.986,21.7,21.7,0,0,1,12.017-4.491,43.114,43.114,0,0,1,6.765.337,29.946,29.946,0,0,1,6.92,1.265,16.293,16.293,0,0,1,10.193,11.9,18.81,18.81,0,0,1-3.859,15.371,20.192,20.192,0,0,1-7.746,5.9,3.022,3.022,0,0,1-2.3.116c-1.884-.749-1.576-3.082-.717-4.639.919-1.666,2.334-3.278,1.594-5.305a4.014,4.014,0,0,0-1.992-2.144c-1.873-.955-3.967-.729-5.981-.5Z" transform="translate(-465.191 -200.863)" fill="#2f2e41"/>
  <path id="パス_819" data-name="パス 819" d="M729.953,379.858H536.308a10.522,10.522,0,0,1-10.51-10.51v-41.4a10.522,10.522,0,0,1,10.51-10.51H729.953a10.522,10.522,0,0,1,10.51,10.51v41.4A10.523,10.523,0,0,1,729.953,379.858Z" transform="translate(-306.078 -183.045)" fill="#fff"/>
  <path id="パス_820" data-name="パス 820" d="M729.772,380H536.126A10.841,10.841,0,0,1,525.3,369.167v-41.4a10.841,10.841,0,0,1,10.829-10.829H729.772A10.841,10.841,0,0,1,740.6,327.762v41.4A10.841,10.841,0,0,1,729.772,380ZM536.126,318.207a9.566,9.566,0,0,0-9.555,9.555v41.4a9.566,9.566,0,0,0,9.555,9.555H729.772a9.566,9.566,0,0,0,9.555-9.555v-41.4a9.566,9.566,0,0,0-9.555-9.555Z" transform="translate(-305.896 -182.864)" fill="#3f3d56"/>
  <path id="パス_821" data-name="パス 821" d="M719.816,375.112H573.308A10.522,10.522,0,0,1,562.8,364.6V342.944a10.522,10.522,0,0,1,10.51-10.51H719.816a10.522,10.522,0,0,1,10.51,10.51V364.6A10.522,10.522,0,0,1,719.816,375.112Z" transform="translate(-319.509 -188.491)" fill="#f2f2f2"/>
  <circle id="楕円形_299" data-name="楕円形 299" cx="12.569" cy="12.569" r="12.569" transform="translate(272.757 149.809)" fill="#ff6584"/>
  <path id="パス_822" data-name="パス 822" d="M721.76,378.353l-17.742-14.88L686.582,348.85a2.548,2.548,0,0,0-3.282.006l-17.379,14.69-4.245,3.588-6.4-5.368-19.452-16.314a2.548,2.548,0,0,0-3.282.006l-19.389,16.389-19.694,16.647a.637.637,0,0,0,.412,1.124l40.377-.078,12.781-.025-.125.106,38.1-.073,36.351-.07a.637.637,0,0,0,.408-1.125Z" transform="translate(-330.558 -193.001)" fill="#3f3d56"/>
  <path id="パス_823" data-name="パス 823" d="M986.075,767.207h-122.3a.637.637,0,1,1,0-1.274h122.3a.637.637,0,1,1,0,1.274Z" transform="translate(-428.535 -345.855)" fill="#ccc"/>
  <path id="パス_824" data-name="パス 824" d="M748.386,210.722a7.148,7.148,0,0,0-4.618-3.249,6.566,6.566,0,0,0-1.057-.134l-48.533-43.392a5.743,5.743,0,0,0-3.586-1.714,4.889,4.889,0,0,0-.809-.025,5.768,5.768,0,0,0-3.8,9.861l18.581,16.2,30.512,26.594a7.579,7.579,0,0,0,.223,1.484,7.176,7.176,0,0,0,6.16,5.332,7.065,7.065,0,0,0,3.854-.637,7.266,7.266,0,0,0,2.472-1.892c.07-.083.134-.159.2-.248a7.193,7.193,0,0,0,.4-8.179Z" transform="translate(-363.607 -126.695)" fill="#ffb8b8"/>
  <path id="パス_825" data-name="パス 825" d="M647.123,263.924l-.452-18.384-.382-15.256-.261-10.676-.516-20.811a5.762,5.762,0,0,0-10.007-3.344,4.41,4.41,0,0,0-.478.612,5.691,5.691,0,0,0-.994,3.854l1.134,30.365.567,15.256.726,19.46a7.653,7.653,0,0,0-.567.9,7.2,7.2,0,1,0,11.23-1.975Z" transform="translate(-345.357 -138.079)" fill="#ffb8b8"/>
  <path id="パス_826" data-name="パス 826" d="M691.158,200.235l-4.5-12.2-7.287-19.759a10.2,10.2,0,0,0-6.338-6.166c-.115-.038-.235-.076-.35-.108a10.182,10.182,0,0,0-8.434,1.159L639.7,178.73a10.251,10.251,0,0,0-3.357,13.855,176.024,176.024,0,0,0,10.02,15.409c2.86,3.892,8.185,4.306,9.109,10.676h18.1l18.32-16.447Z" transform="translate(-345.694 -126.463)" fill="#ccc"/>
  <circle id="楕円形_300" data-name="楕円形 300" cx="14.76" cy="14.76" r="14.76" transform="translate(49.681 193.334)" fill="#a0616a"/>
  <path id="パス_827" data-name="パス 827" d="M318.083,416.377q.218.174.423.368a6.612,6.612,0,0,1-.266,9.863,6.191,6.191,0,0,1-.518.391l1,33.725a5.135,5.135,0,0,1-3.532,5.011l-.061.013-27.383,2.916a5.668,5.668,0,1,1-1.1-11.283l19.52-1.719,3.376-29.207a6.3,6.3,0,0,1-.619-.631,6.612,6.612,0,0,1,9.159-9.448Z" transform="translate(-217.406 -218.443)" fill="#a0616a"/>
  <path id="パス_828" data-name="パス 828" d="M139.327,632.979H146.7l3.5-28.418H139.326Z" transform="translate(-50.577 -219.461)" fill="#a0616a"/>
  <path id="パス_829" data-name="パス 829" d="M317.242,751.858h14.51A9.246,9.246,0,0,1,341,761.1v.3H317.243Z" transform="translate(-230.371 -340.745)" fill="#2f2e41"/>
  <path id="パス_830" data-name="パス 830" d="M24.366,619.267l6.33,3.769,17.551-22.624L38.9,594.849Z" transform="translate(-8.845 -215.935)" fill="#a0616a"/>
  <path id="パス_831" data-name="パス 831" d="M201.844,734.889l12.467,7.423h0a9.246,9.246,0,0,1,3.214,12.675l-.154.258L196.96,743.092Z" transform="translate(-186.707 -334.585)" fill="#2f2e41"/>
  <path id="パス_832" data-name="パス 832" d="M289.943,662.656h-8.25A2.7,2.7,0,0,1,279,660.237l-8.317-78.183a.9.9,0,0,0-1.718-.276l-15,33.225L227.4,658.321A2.717,2.717,0,0,1,224,659.382l-10.612-4.669a2.705,2.705,0,0,1-1.232-3.863l24.42-40.89,7.49-34.452c-2.356-14.941,7.743-37.153,7.845-37.376l.05-.109,27.816-10.872.14.171c10.97,36,17.654,74.74,12.719,132.856A2.723,2.723,0,0,1,289.943,662.656Z" transform="translate(-192.086 -259.175)" fill="#2f2e41"/>
  <path id="パス_833" data-name="パス 833" d="M266.133,518.795l-.13-.272c-.062-.13-6.247-13.175-11.015-27.118a20.565,20.565,0,0,1,1.426-16.481,20.79,20.79,0,0,1,13.257-10.195h0a20.815,20.815,0,0,1,24.16,12.466c3.782,9.457,2.577,19.552,1.442,27.491l-.023.159-.145.069Z" transform="translate(-207.375 -236.306)" fill="#3f3d56"/>
  <path id="パス_834" data-name="パス 834" d="M296.767,412.96H273.33V402.744c5.144-2.044,10.178-3.782,13.221,0A10.216,10.216,0,0,1,296.767,412.96Z" transform="translate(-214.43 -213.204)" fill="#2f2e41"/>
  <path id="パス_835" data-name="パス 835" d="M261.073,401.185c-14.011,0-17.933,17.563-17.933,27.471,0,5.526,2.5,7.5,6.426,8.17l1.387-7.4,3.248,7.714c1.1.006,2.262-.016,3.463-.038l1.1-2.268,2.456,2.227c9.836.015,17.785,1.448,17.785-8.41C279.006,418.748,275.567,401.185,261.073,401.185Z" transform="translate(-203.471 -213.448)" fill="#2f2e41"/>
  <path id="パス_836" data-name="パス 836" d="M303.8,767.207H181.5a.637.637,0,1,1,0-1.274H303.8a.637.637,0,1,1,0,1.274Z" transform="translate(-180.864 -345.855)" fill="#ccc"/>
  <path id="パス_837" data-name="パス 837" d="M358.416,416.427H331.026a6.058,6.058,0,0,1-6.051-6.051V382.985a6.058,6.058,0,0,1,6.051-6.051h27.391a6.058,6.058,0,0,1,6.051,6.051v27.391A6.058,6.058,0,0,1,358.416,416.427Z" transform="translate(-233.177 -204.644)" fill="#fff"/>
  <path id="パス_838" data-name="パス 838" d="M358.416,416.427H331.026a6.058,6.058,0,0,1-6.051-6.051V382.985a6.058,6.058,0,0,1,6.051-6.051h27.391a6.058,6.058,0,0,1,6.051,6.051v27.391A6.058,6.058,0,0,1,358.416,416.427Zm-27.391-38.219a4.783,4.783,0,0,0-4.777,4.777v27.391a4.783,4.783,0,0,0,4.777,4.777h27.391a4.783,4.783,0,0,0,4.777-4.777V382.985a4.783,4.783,0,0,0-4.777-4.777Z" transform="translate(-233.177 -204.644)" fill="#3f3d56"/>
  <path id="パス_839" data-name="パス 839" d="M358.721,411.632H340.885a1.913,1.913,0,0,1-1.911-1.911V396.344a1.913,1.913,0,0,1,1.911-1.911h5.021a1.9,1.9,0,0,1,1.628.909l1.4,2.276h9.787a1.913,1.913,0,0,1,1.911,1.911v10.192A1.913,1.913,0,0,1,358.721,411.632Z" transform="translate(-238.26 -210.997)"/>
  <path id="パス_840" data-name="パス 840" d="M339.295,430.087q.134.245.247.5a6.612,6.612,0,0,1-4.072,8.987,6.2,6.2,0,0,1-.629.159l-12.166,31.47a5.135,5.135,0,0,1-5.2,3.248l-.061-.012L291.044,466.5a5.668,5.668,0,1,1,3.367-10.825l18.658,5.99,14.445-25.608a6.3,6.3,0,0,1-.326-.821,6.612,6.612,0,0,1,12.107-5.154Z" transform="translate(-219.413 -222.694)" fill="#a0616a"/>
</svg>
